Sprint_08550001_forces_filt100Hz.mot
version=1
nRows=43
nColumns=19
inDegrees=yes
endheader
time	R_ground_force_vx	R_ground_force_vy	R_ground_force_vz	R_ground_force_px	R_ground_force_py	R_ground_force_pz	R_ground_torque_x	R_ground_torque_y	R_ground_torque_z	L_ground_force_vx	L_ground_force_vy	L_ground_force_vz	L_ground_force_px	L_ground_force_py	L_ground_force_pz	L_ground_torque_x	L_ground_torque_y	L_ground_torque_z	
1.194500	  0.000000	  0.000000	  0.000000	  0.421790	  0.000000	 -0.232805	  0.000000	  0.000000	  0.000000	-205.169444	1672.451768	347.979190	  1.055430	  0.000000	 -0.377560	  0.000000	-36.925881	  0.000000
1.195000	  0.000000	  0.000000	  0.000000	  0.424177	  0.000000	 -0.233091	  0.000000	  0.000000	  0.000000	-248.287233	1733.145341	342.901634	  1.027703	  0.000000	 -0.378612	  0.000000	-54.518383	  0.000000
1.195500	  0.000000	  0.000000	  0.000000	  0.426591	  0.000000	 -0.233088	  0.000000	  0.000000	  0.000000	-288.613244	1793.911327	334.231163	  1.002753	  0.000000	 -0.380144	  0.000000	-70.153790	  0.000000
1.196000	  0.000000	  0.000000	  0.000000	  0.429005	  0.000000	 -0.233085	  0.000000	  0.000000	  0.000000	-324.117362	1853.864465	323.095245	  0.980963	  0.000000	 -0.381843	  0.000000	-83.111449	  0.000000
1.196500	  0.000000	  0.000000	  0.000000	  0.431419	  0.000000	 -0.233083	  0.000000	  0.000000	  0.000000	-353.181915	1912.032300	310.829787	  0.962559	  0.000000	 -0.383421	  0.000000	-92.867616	  0.000000
1.197000	  0.000000	  0.000000	  0.000000	  0.433833	  0.000000	 -0.233080	  0.000000	  0.000000	  0.000000	-374.725410	1967.448984	298.810348	  0.947616	  0.000000	 -0.384638	  0.000000	-99.165256	  0.000000
1.197500	  0.000000	  0.000000	  0.000000	  0.436247	  0.000000	 -0.233078	  0.000000	  0.000000	  0.000000	-388.249468	2019.288782	288.286753	  0.936075	  0.000000	 -0.385307	  0.000000	-102.037792	  0.000000
1.198000	  0.000000	  0.000000	  0.000000	  0.438661	  0.000000	 -0.233075	  0.000000	  0.000000	  0.000000	-393.807930	2066.978199	280.244264	  0.927790	  0.000000	 -0.385304	  0.000000	-101.782738	  0.000000
1.198500	  0.000000	  0.000000	  0.000000	  0.441075	  0.000000	 -0.233072	  0.000000	  0.000000	  0.000000	-391.915757	2110.280935	275.306644	  0.922548	  0.000000	 -0.384573	  0.000000	-98.895334	  0.000000
1.199000	  0.000000	  0.000000	  0.000000	  0.443489	  0.000000	 -0.233070	  0.000000	  0.000000	  0.000000	-383.424816	2149.366757	273.691640	  0.920094	  0.000000	 -0.383124	  0.000000	-93.978185	  0.000000
1.199500	  0.000000	  0.000000	  0.000000	  0.445903	  0.000000	 -0.233067	  0.000000	  0.000000	  0.000000	-369.397093	2184.836025	275.223921	  0.920143	  0.000000	 -0.381027	  0.000000	-87.645942	  0.000000
1.200000	  0.000000	  0.000000	  0.000000	  0.448317	  0.000000	 -0.233064	  0.000000	  0.000000	  0.000000	-350.998049	2217.668159	279.398420	  0.922391	  0.000000	 -0.378406	  0.000000	-80.447265	  0.000000
1.200500	  0.000000	  0.000000	  0.000000	  0.450723	  0.000000	 -0.232934	  0.000000	  0.000000	  0.000000	-329.422660	2249.099144	285.477376	  0.926523	  0.000000	 -0.375432	  0.000000	-72.821956	  0.000000
1.201000	  0.000000	  0.000000	  0.000000	  0.453128	  0.000000	 -0.232804	  0.000000	  0.000000	  0.000000	-305.855130	2280.448654	292.599247	  0.932212	  0.000000	 -0.372303	  0.000000	-65.097818	  0.000000
1.201500	  0.000000	  0.000000	  0.000000	  0.455534	  0.000000	 -0.232674	  0.000000	  0.000000	  0.000000	-281.455332	2312.915270	299.876378	  0.939104	  0.000000	 -0.369235	  0.000000	-57.521183	  0.000000
1.202000	  0.000000	  0.000000	  0.000000	  0.457940	  0.000000	 -0.232544	  0.000000	  0.000000	  0.000000	-257.357221	2347.378028	306.468429	  0.946811	  0.000000	 -0.366438	  0.000000	-50.301497	  0.000000
1.202500	  0.000000	  0.000000	  0.000000	  0.460345	  0.000000	 -0.232415	  0.000000	  0.000000	  0.000000	-234.660487	2384.263275	311.629068	  0.954902	  0.000000	 -0.364097	  0.000000	-43.647080	  0.000000
1.203000	  0.000000	  0.000000	  0.000000	  0.462751	  0.000000	 -0.232285	  0.000000	  0.000000	  0.000000	-214.405297	2423.516550	314.732343	  0.962911	  0.000000	 -0.362344	  0.000000	-37.774119	  0.000000
1.203500	  0.000000	  0.000000	  0.000000	  0.465157	  0.000000	 -0.232155	  0.000000	  0.000000	  0.000000	-197.531873	2464.673129	315.288973	  0.970361	  0.000000	 -0.361238	  0.000000	-32.879154	  0.000000
1.204000	  0.000000	  0.000000	  0.000000	  0.467562	  0.000000	 -0.232025	  0.000000	  0.000000	  0.000000	-184.837573	2506.996439	312.959657	  0.976808	  0.000000	 -0.360760	  0.000000	-29.086057	  0.000000
1.204500	  0.000000	  0.000000	  0.000000	  0.469968	  0.000000	 -0.231895	  0.000000	  0.000000	  0.000000	-176.944014	2549.670461	307.568455	  0.981888	  0.000000	 -0.360825	  0.000000	-26.392910	  0.000000
1.205000	  0.000000	  0.000000	  0.000000	  0.472374	  0.000000	 -0.231765	  0.000000	  0.000000	  0.000000	-174.274721	2592.007474	299.111327	  0.985351	  0.000000	 -0.361292	  0.000000	-24.646207	  0.000000
1.205500	  0.000000	  0.000000	  0.000000	  0.474685	  0.000000	 -0.231750	  0.000000	  0.000000	  0.000000	-177.038902	2633.579847	287.752102	  0.987070	  0.000000	 -0.361990	  0.000000	-23.557041	  0.000000
1.206000	  0.000000	  0.000000	  0.000000	  0.476996	  0.000000	 -0.231734	  0.000000	  0.000000	  0.000000	-185.220413	2674.212846	273.805515	  0.987030	  0.000000	 -0.362748	  0.000000	-22.748297	  0.000000
1.206500	  0.000000	  0.000000	  0.000000	  0.479307	  0.000000	 -0.231719	  0.000000	  0.000000	  0.000000	-198.573290	2713.855662	257.711017	  0.985304	  0.000000	 -0.363415	  0.000000	-21.813631	  0.000000
1.207000	  0.000000	  0.000000	  0.000000	  0.481618	  0.000000	 -0.231704	  0.000000	  0.000000	  0.000000	-216.626356	2752.409923	240.002154	  0.982017	  0.000000	 -0.363875	  0.000000	-20.373415	  0.000000
1.207500	  0.000000	  0.000000	  0.000000	  0.483929	  0.000000	 -0.231689	  0.000000	  0.000000	  0.000000	-238.697961	2789.593747	221.276445	  0.977337	  0.000000	 -0.364061	  0.000000	-18.118021	  0.000000
1.208000	  0.000000	  0.000000	  0.000000	  0.486240	  0.000000	 -0.231673	  0.000000	  0.000000	  0.000000	-263.918166	2824.894732	202.162815	  0.971473	  0.000000	 -0.363949	  0.000000	-14.841980	  0.000000
1.208500	  0.000000	  0.000000	  0.000000	  0.488551	  0.000000	 -0.231658	  0.000000	  0.000000	  0.000000	-291.256692	2857.653231	183.278175	  0.964693	  0.000000	 -0.363554	  0.000000	-10.474418	  0.000000
1.209000	  0.000000	  0.000000	  0.000000	  0.490863	  0.000000	 -0.231643	  0.000000	  0.000000	  0.000000	-319.558907	2887.242860	165.171467	  0.957323	  0.000000	 -0.362913	  0.000000	 -5.096972	  0.000000
1.209500	  0.000000	  0.000000	  0.000000	  0.493174	  0.000000	 -0.231628	  0.000000	  0.000000	  0.000000	-347.591056	2913.244462	148.263821	  0.949736	  0.000000	 -0.362071	  0.000000	  1.061384	  0.000000
1.210000	  0.000000	  0.000000	  0.000000	  0.495485	  0.000000	 -0.231612	  0.000000	  0.000000	  0.000000	-374.094098	2935.538160	132.803701	  0.942331	  0.000000	 -0.361075	  0.000000	  7.653388	  0.000000
1.210500	  0.000000	  0.000000	  0.000000	  0.497777	  0.000000	 -0.231616	  0.000000	  0.000000	  0.000000	-397.845995	2954.302094	118.853885	  0.935508	  0.000000	 -0.359968	  0.000000	 14.262581	  0.000000
1.211000	  0.000000	  0.000000	  0.000000	  0.500069	  0.000000	 -0.231619	  0.000000	  0.000000	  0.000000	-417.728887	2969.947836	106.305509	  0.929634	  0.000000	 -0.358784	  0.000000	 20.459624	  0.000000
1.211500	  0.000000	  0.000000	  0.000000	  0.502361	  0.000000	 -0.231622	  0.000000	  0.000000	  0.000000	-432.793680	2983.026531	 94.902677	  0.925014	  0.000000	 -0.357553	  0.000000	 25.849369	  0.000000
1.212000	  0.000000	  0.000000	  0.000000	  0.504653	  0.000000	 -0.231625	  0.000000	  0.000000	  0.000000	-442.317512	2994.133369	 84.264503	  0.921865	  0.000000	 -0.356299	  0.000000	 30.101731	  0.000000
1.212500	  0.000000	  0.000000	  0.000000	  0.506946	  0.000000	 -0.231628	  0.000000	  0.000000	  0.000000	-445.853250	3003.837666	 73.898558	  0.920304	  0.000000	 -0.355054	  0.000000	 32.966157	  0.000000
1.213000	  0.000000	  0.000000	  0.000000	  0.509238	  0.000000	 -0.231632	  0.000000	  0.000000	  0.000000	-443.270106	3012.650576	 63.218511	  0.920347	  0.000000	 -0.353860	  0.000000	 34.276251	  0.000000
1.213500	  0.000000	  0.000000	  0.000000	  0.511530	  0.000000	 -0.231635	  0.000000	  0.000000	  0.000000	-434.781238	3021.023709	 51.586179	  0.921918	  0.000000	 -0.352776	  0.000000	 33.954107	  0.000000
1.214000	  0.000000	  0.000000	  0.000000	  0.513822	  0.000000	 -0.231638	  0.000000	  0.000000	  0.000000	-420.948180	3029.364416	 38.379738	  0.924880	  0.000000	 -0.351871	  0.000000	 32.012857	  0.000000
1.214500	  0.000000	  0.000000	  0.000000	  0.516114	  0.000000	 -0.231641	  0.000000	  0.000000	  0.000000	-402.651307	3038.058111	 23.076234	  0.929055	  0.000000	 -0.351215	  0.000000	 28.548683	  0.000000
1.215000	  0.000000	  0.000000	  0.000000	  0.518406	  0.000000	 -0.231644	  0.000000	  0.000000	  0.000000	-381.025186	3047.492182	  5.335573	  0.934235	  0.000000	 -0.350856	  0.000000	 23.714072	  0.000000
1.215500	  0.000000	  0.000000	  0.000000	  0.520682	  0.000000	 -0.231721	  0.000000	  0.000000	  0.000000	-357.368529	3058.067333	-14.926403	  0.940197	  0.000000	 -0.350808	  0.000000	 17.672767	  0.000000
